D:\school\WTK\thesis\model\3dpredictsim\Results\batch_windlass\Pog_s1_tmt_bCst_d00_k500_WL10_ig24_pas_GRF.mot
nRows=17
nColumns=19

name D:\school\WTK\thesis\model\3dpredictsim\Results\batch_windlass\Pog_s1_tmt_bCst_d00_k500_WL10_ig24_pas_GRF.mot
datacolumns 19
datarows 17
range 0.0000000000 0.1700383773
endheader
time 	ground_force_vx	ground_force_vy	ground_force_vz	ground_force_px	ground_force_py	ground_force_pz	1_ground_force_vx	1_ground_force_vy	1_ground_force_vz	1_ground_force_px	1_ground_force_py	1_ground_force_pz	ground_torque_x	ground_torque_y	ground_torque_z	1_ground_torque_x	1_ground_torque_y	1_ground_torque_z
        0.0000000000	      -79.2133264638	       57.5977136071	       18.5127538980	        0.1297914862	        0.0000000000	        0.0453295552	      112.4068709542	      487.8526937229	        2.1047150653	       -0.3350231667	        0.0000000000	       -0.0373111813	        0.0000000000	        0.0000000000	        0.0000000000	        0.0000000000	        0.0000000000	        0.0000000000	
        0.0106273986	     -127.7037018564	      114.3336878181	       36.3182110004	        0.1446307862	        0.0000000000	        0.0442607274	       92.9931351512	      399.6565045937	       -0.0961722981	       -0.3304944639	        0.0000000000	       -0.0356805663	        0.0000000000	        0.0000000000	        0.0000000000	        0.0000000000	        0.0000000000	        0.0000000000	
        0.0212547972	     -133.3171341956	      247.5157440280	       48.4382494011	        0.1616088054	        0.0000000000	        0.0448560471	       63.5922877074	      298.8309076087	       -9.5083500750	       -0.3230712895	        0.0000000000	       -0.0326953159	        0.0000000000	        0.0000000000	        0.0000000000	        0.0000000000	        0.0000000000	        0.0000000000	
        0.0318821957	      -89.3153392889	      499.2483640814	        9.6932495048	        0.1735184972	        0.0000000000	        0.0438771019	       31.9030086819	      197.1743750494	      -12.4651566677	       -0.3097549861	        0.0000000000	       -0.0262189259	        0.0000000000	        0.0000000000	        0.0000000000	        0.0000000000	        0.0000000000	        0.0000000000	
        0.0425095943	     -111.9939196425	      764.8822175102	       -5.6233040203	        0.1854005065	        0.0000000000	        0.0426306772	        9.9415697509	      151.1065918534	      -16.3303855156	       -0.3027638856	        0.0000000000	       -0.0221821904	        0.0000000000	        0.0000000000	        0.0000000000	        0.0000000000	        0.0000000000	        0.0000000000	
        0.0531369929	     -126.3678069224	      892.7862020264	       -8.9589336281	        0.1914710712	        0.0000000000	        0.0417359387	        4.3100727587	      115.8531940433	      -17.5733907834	       -0.3025387100	        0.0000000000	       -0.0223358938	        0.0000000000	        0.0000000000	        0.0000000000	        0.0000000000	        0.0000000000	        0.0000000000	
        0.0637643915	     -123.4779950681	      898.6729994229	       -9.2801081577	        0.1952200057	        0.0000000000	        0.0410845570	       -2.5016428784	       74.3265137220	      -14.2381277150	       -0.3023962496	        0.0000000000	       -0.0222482868	        0.0000000000	        0.0000000000	        0.0000000000	        0.0000000000	        0.0000000000	        0.0000000000	
        0.0743917901	     -113.3022612682	      863.2138545505	       -7.3662190004	        0.1982199728	        0.0000000000	        0.0405881662	       -8.9059145458	       27.3142697364	       -6.1432922648	       -0.3032485896	        0.0000000000	       -0.0218910045	        0.0000000000	        0.0000000000	        0.0000000000	        0.0000000000	        0.0000000000	        0.0000000000	
        0.0850191887	     -100.6922943896	      823.1726301766	       -7.0986409914	        0.2009150403	        0.0000000000	        0.0401980457	        0.0818155190	       -0.0859707151	        0.0125309010	        0.0000000000	        0.0000000000	        0.0000000000	        0.0000000000	        0.0000000000	        0.0000000000	        0.0000000000	        0.0000000000	        0.0000000000	
        0.0956465872	      -88.0304886244	      784.8264549940	       -8.9433391861	        0.2035729716	        0.0000000000	        0.0398919274	        0.0001087570	       -0.0000953146	        0.0000035157	        0.0000000000	        0.0000000000	        0.0000000000	        0.0000000000	        0.0000000000	        0.0000000000	        0.0000000000	        0.0000000000	        0.0000000000	
        0.1062739858	      -75.2259426088	      751.0182762630	      -10.5977808428	        0.2062280262	        0.0000000000	        0.0397061036	        0.0000053567	       -0.0000040179	       -0.0000000656	        0.0000000000	        0.0000000000	        0.0000000000	        0.0000000000	        0.0000000000	        0.0000000000	        0.0000000000	        0.0000000000	        0.0000000000	
        0.1169013844	      -62.8101634883	      720.3852991524	      -12.8399961778	        0.2098635586	        0.0000000000	        0.0395808456	        0.0000128993	       -0.0000084745	       -0.0000005020	        0.0000000000	        0.0000000000	        0.0000000000	        0.0000000000	        0.0000000000	        0.0000000000	        0.0000000000	        0.0000000000	        0.0000000000	
        0.1275287830	      -52.9750756463	      692.9381624024	      -14.9532164572	        0.2147548995	        0.0000000000	        0.0394778529	        0.0003253996	       -0.0001923176	       -0.0000185422	        0.0000000000	        0.0000000000	        0.0000000000	        0.0000000000	        0.0000000000	        0.0000000000	        0.0000000000	        0.0000000000	        0.0000000000	
        0.1381561816	      -45.5931051336	      668.8026025474	      -16.7884186532	        0.2203474693	        0.0000000000	        0.0393877635	       -0.0040762177	        0.0022204000	        0.0002842364	        0.0000000000	        0.0000000000	        0.0000000000	        0.0000000000	        0.0000000000	        0.0000000000	        0.0000000000	        0.0000000000	        0.0000000000	
        0.1487835802	      -39.8824304175	      647.8080165273	      -18.2276954634	        0.2263391712	        0.0000000000	        0.0393044161	       -0.0126027210	        0.0064474020	        0.0009993757	        0.0000000000	        0.0000000000	        0.0000000000	        0.0000000000	        0.0000000000	        0.0000000000	        0.0000000000	        0.0000000000	        0.0000000000	
        0.1594109787	      -35.3851275750	      630.5660002051	      -19.1298459427	        0.2325090613	        0.0000000000	        0.0392292144	       -0.0085909264	        0.0041810401	        0.0007425574	        0.0000000000	        0.0000000000	        0.0000000000	        0.0000000000	        0.0000000000	        0.0000000000	        0.0000000000	        0.0000000000	        0.0000000000	
        0.1700383773	      -31.9225204770	      616.8004561545	      -19.4112959942	        0.2385700207	        0.0000000000	        0.0391689358	       -0.0067125498	        0.0031329771	        0.0006163389	        0.0000000000	        0.0000000000	        0.0000000000	        0.0000000000	        0.0000000000	        0.0000000000	        0.0000000000	        0.0000000000	        0.0000000000	
